<svg width="20" height="20" viewBox="0 0 20 20" fill="none" xmlns="http://www.w3.org/2000/svg">
<path d="M17.8752 8.7498H16.5V7.37512C16.5 6.61576 17.1157 6.00012 17.8751 6.00012C18.6344 6.00012 19.25 6.61569 19.25 7.37496C19.25 8.13426 18.6345 8.7498 17.8752 8.7498ZM14 2.12512V7.3748C14 8.13419 13.3844 8.7498 12.625 8.7498C11.8656 8.7498 11.25 8.13419 11.25 7.3748V2.12512C11.25 1.36573 11.8656 0.750122 12.625 0.750122C13.3844 0.750122 14 1.36573 14 2.12512Z" fill="#2EB67D" stroke="black"/>
<path d="M2.12484 11.2502H3.5V12.6249C3.5 13.3842 2.88434 13.9999 2.12492 13.9999C1.36559 13.9999 0.750001 13.3843 0.750001 12.625C0.750001 11.8657 1.36554 11.2502 2.12484 11.2502ZM6 17.8749V12.6252C6 11.8658 6.61561 11.2502 7.375 11.2502C8.13439 11.2502 8.75 11.8658 8.75 12.6252V17.8749C8.75 18.6343 8.13439 19.2499 7.375 19.2499C6.61561 19.2499 6 18.6343 6 17.8749Z" fill="#E01E5A" stroke="black"/>
<path d="M11.2501 17.8752L11.2501 16.5L12.6248 16.5C13.3842 16.5 13.9998 17.1157 13.9998 17.8751C13.9998 18.6344 13.3843 19.25 12.625 19.25C11.8657 19.25 11.2501 18.6345 11.2501 17.8752ZM17.8748 14L12.6251 14C11.8657 14 11.2501 13.3844 11.2501 12.625C11.2501 11.8656 11.8657 11.25 12.6251 11.25L17.8748 11.25C18.6342 11.25 19.2498 11.8656 19.2498 12.625C19.2498 13.3844 18.6342 14 17.8748 14Z" fill="#ECB22E" stroke="black"/>
<path d="M8.7498 2.12484L8.7498 3.5L7.37512 3.5C6.61576 3.5 6.00012 2.88434 6.00012 2.12492C6.00012 1.36559 6.61569 0.75 7.37496 0.75C8.13427 0.75 8.7498 1.36554 8.7498 2.12484ZM2.12512 6L7.3748 6C8.13419 6 8.7498 6.61561 8.7498 7.375C8.7498 8.13439 8.13419 8.75 7.3748 8.75L2.12512 8.75C1.36573 8.75 0.750122 8.13439 0.750122 7.375C0.750122 6.61561 1.36573 6 2.12512 6Z" fill="#36C5F0" stroke="black"/>
</svg>
